<svg width="25" height="25" viewBox="0 0 25 25" fill="none" xmlns="http://www.w3.org/2000/svg">
<path d="M6.15977 0.625V1.25L3.34569 1.48438C1.79477 1.61133 0.409676 1.72852 0.273117 1.74316L0.0146313 1.77246V4.64355V7.51953H0.126805C0.18533 7.51953 1.54116 7.63184 3.13597 7.76367C4.73078 7.89551 6.06711 8.00781 6.10125 8.00781C6.14514 8.00781 6.15977 8.30566 6.15977 9.32617V10.6445H5.38432H4.60398L4.50644 10.5176C4.41865 10.4053 4.40402 10.3174 4.40402 9.95605V9.52148H2.20445H0L0.0292626 10.2637C0.0780336 11.665 0.458447 12.6172 1.31682 13.5303C2.12641 14.3799 3.12622 14.8975 4.21381 15.0195C4.45767 15.0488 4.50156 15.0635 4.47718 15.1318C4.38451 15.3662 4.34549 15.8252 4.39426 16.1133C4.54058 16.9434 5.1112 17.6123 5.89153 17.8809L6.13539 17.9639L6.15002 19.2822L6.15977 20.6055H3.0872H0.0146313V22.8027V25H12.5H24.9854V22.8027V20.6055H21.9128H18.8402V19.2822V17.9639L19.6011 17.9785L20.3619 17.9932L20.4789 18.1299C20.5813 18.252 20.596 18.3105 20.596 18.7061V19.1406H22.7956H25L24.9707 18.3691C24.9317 17.2461 24.7269 16.5674 24.1758 15.7373C23.4101 14.585 22.1128 13.7744 20.8106 13.6426C20.5472 13.6133 20.4984 13.5938 20.5228 13.5303C20.6009 13.335 20.6496 12.8955 20.6252 12.6709C20.5082 11.7578 19.8986 11.0156 19.0597 10.7666L18.8646 10.708L18.85 9.35547C18.8402 8.4082 18.8549 8.00781 18.8939 8.00781C18.9231 8.00781 20.2741 7.89551 21.8933 7.76367C23.5125 7.62695 24.8732 7.51953 24.9122 7.51953C24.9756 7.51953 24.9854 7.14355 24.9854 4.64355V1.77246L24.7805 1.74316C24.6635 1.72852 23.2833 1.61133 21.708 1.48438L18.8402 1.24512V0.625V0H12.5H6.15977V0.625ZM17.3771 6.05469V10.6445H12.5H7.6229V6.05469V1.46484H12.5H17.3771V6.05469ZM6.15977 4.64355V6.55273L5.88178 6.52344C5.72571 6.50391 4.78931 6.42578 3.79438 6.34766C2.80433 6.26465 1.87281 6.18652 1.73625 6.17188L1.47776 6.14746V4.63379C1.47776 3.80371 1.48264 3.125 1.49239 3.12012C1.52653 3.11035 5.77936 2.74414 5.95494 2.73926L6.15977 2.73438V4.64355ZM21.1568 2.90527C22.3371 3.00293 23.3515 3.09082 23.4149 3.10547L23.5222 3.125V4.63379V6.14746L23.2686 6.17676C23.0784 6.19629 18.9231 6.54297 18.8549 6.54297C18.8451 6.54297 18.8402 5.68359 18.8402 4.63867C18.8402 2.85645 18.8451 2.73438 18.928 2.73438C18.9719 2.73438 19.9766 2.8125 21.1568 2.90527ZM3.16524 11.1426C3.38471 11.5625 3.80414 11.9141 4.24795 12.041C4.45767 12.1045 4.50156 12.1338 4.47718 12.1973C4.35037 12.5293 4.34062 13.1543 4.45767 13.4668C4.50156 13.584 4.50156 13.584 4.27234 13.5498C3.93582 13.501 3.41397 13.3154 3.09696 13.125C2.94577 13.0371 2.65314 12.7979 2.4483 12.5977C2.1508 12.2998 2.03375 12.1387 1.84842 11.7676C1.72649 11.5137 1.60944 11.2305 1.59481 11.1426L1.56555 10.9863H2.3215H3.08233L3.16524 11.1426ZM9.23234 12.1436C9.23234 12.1631 8.92021 12.4951 8.5398 12.876L7.84237 13.5742H7.08154C6.36949 13.5742 6.31096 13.5693 6.1549 13.4619C6.05248 13.3936 5.95494 13.2617 5.89641 13.125C5.8135 12.9248 5.80862 12.8662 5.86227 12.7002C5.89153 12.5879 5.96957 12.4463 6.02809 12.3779C6.23293 12.1387 6.41338 12.1143 7.88139 12.1094C8.62271 12.1094 9.23234 12.124 9.23234 12.1436ZM15.0849 12.1436C15.0849 12.1631 14.7727 12.4951 14.3923 12.876L13.6949 13.5742H11.7928H9.89075L10.6223 12.8418L11.3539 12.1094H13.2169C14.246 12.1094 15.0849 12.124 15.0849 12.1436ZM18.6159 12.1631C18.8646 12.2314 19.0597 12.4316 19.1377 12.6904C19.1914 12.8711 19.1865 12.9199 19.1036 13.125C19.0451 13.2617 18.9475 13.3936 18.8451 13.4619C18.6842 13.5742 18.6598 13.5742 17.2113 13.5742H15.7433L16.4748 12.8418L17.2064 12.1094H17.816C18.1526 12.1094 18.5135 12.1338 18.6159 12.1631ZM8.52517 15.7715L7.7936 16.5039H7.05716C6.36949 16.5039 6.31096 16.4941 6.1549 16.3916C6.05248 16.3232 5.95494 16.1914 5.89641 16.0547C5.8135 15.8545 5.80862 15.7959 5.86227 15.6299C5.89153 15.5176 5.96957 15.376 6.02809 15.3076C6.23293 15.0684 6.40851 15.0439 7.89114 15.0391H9.25673L8.52517 15.7715ZM14.3777 15.7715L13.6461 16.5039H11.7684H9.89075L10.6223 15.7715L11.3539 15.0391H13.2316H15.1092L14.3777 15.7715ZM18.6159 15.0928C18.8646 15.1611 19.0597 15.3613 19.1377 15.6201C19.1914 15.8008 19.1865 15.8496 19.1036 16.0547C19.0451 16.1914 18.9475 16.3232 18.8451 16.3916C18.6842 16.5039 18.6598 16.5039 17.2113 16.5039H15.7433L16.4748 15.7715L17.2064 15.0391H17.816C18.1526 15.0391 18.5135 15.0635 18.6159 15.0928ZM21.0105 15.1611C21.9274 15.3955 22.7321 16.0449 23.1516 16.8945C23.2735 17.1484 23.3906 17.4316 23.4052 17.5146L23.4393 17.6758H22.6785H21.9177L21.8348 17.5146C21.6153 17.0898 21.23 16.7676 20.7569 16.6162C20.557 16.5527 20.5033 16.5137 20.5228 16.46C20.6496 16.1328 20.6594 15.5078 20.5423 15.2002C20.5082 15.1025 20.5179 15.0879 20.6106 15.0879C20.674 15.0879 20.8545 15.1221 21.0105 15.1611ZM17.3673 19.2969L17.3771 20.6055H12.5H7.6229V19.3213C7.6229 18.6133 7.63753 18.0176 7.65704 18.0029C7.67167 17.9834 9.86149 17.9736 12.5195 17.9785L17.3527 17.9932L17.3673 19.2969ZM23.5222 22.8027V23.5352H12.5H1.47776V22.8027V22.0703H12.5H23.5222V22.8027Z" fill="#008ECB"/>
</svg>
