<svg width="30" height="30" viewBox="0 0 30 30" fill="none" xmlns="http://www.w3.org/2000/svg">
<path opacity="0.956" fill-rule="evenodd" clip-rule="evenodd" d="M6.42 0.0213203C9.16625 -0.17523 11.1163 0.987209 12.27 3.50863C12.556 4.33977 12.676 5.1963 12.63 6.07823C13.3696 5.67817 14.1596 5.49462 15 5.52761C15.836 5.51647 16.636 5.67964 17.4 6.01705C17.2939 3.34764 18.4339 1.46123 20.82 0.357816C23.294 -0.446965 25.3839 0.134254 27.09 2.10147C28.2663 3.77274 28.5264 5.58775 27.87 7.54658C27.3803 8.71874 26.6103 9.64661 25.56 10.3303C28.0788 11.4789 29.5488 13.4469 29.97 16.2343C30.01 18.8854 30.01 21.5366 29.97 24.1878C29.9 24.2999 29.81 24.3917 29.7 24.4631C27.2001 24.4937 24.7001 24.5039 22.2 24.4937C22.21 26.2273 22.2 27.9608 22.17 29.6941C22.1 29.8062 22.01 29.898 21.9 29.9694C17.3 30.0102 12.7 30.0102 8.1 29.9694C7.99002 29.898 7.90002 29.8062 7.83 29.6941C7.8 27.9608 7.78998 26.2273 7.8 24.4937C5.29992 24.5039 2.79992 24.4937 0.3 24.4631C0.19 24.3917 0.1 24.2999 0.0300001 24.1878C-0.01 21.5162 -0.01 18.8447 0.0300001 16.1731C0.468654 13.411 1.93865 11.4634 4.44 10.3303C2.16944 8.76646 1.35944 6.61497 2.01 3.87572C2.7711 1.7432 4.2411 0.458397 6.42 0.0213203ZM6.54 1.30612C8.64648 1.13059 10.1564 2.00752 11.07 3.9369C11.4619 5.09641 11.422 6.23847 10.95 7.36303C10.64 7.65884 10.4 8.0055 10.23 8.40311C8.92002 9.73887 7.39002 10.0957 5.64 9.47378C3.6276 8.45952 2.79759 6.81785 3.15 4.54871C3.67445 2.80027 4.80444 1.7194 6.54 1.30612ZM22.14 1.30612C24.339 1.12658 25.869 2.06469 26.73 4.12044C27.3326 6.5519 26.5425 8.33636 24.36 9.47378C22.61 10.0957 21.08 9.73887 19.77 8.40311C19.5999 8.0055 19.3599 7.65884 19.05 7.36303C18.1982 5.11619 18.7282 3.29096 20.64 1.88734C21.1178 1.61307 21.6179 1.41933 22.14 1.30612ZM14.34 6.81241C16.4465 6.63688 17.9564 7.51378 18.87 9.44319C19.5813 11.9386 18.8113 13.7843 16.56 14.9801C14.4344 15.6715 12.7244 15.0903 11.43 13.2364C10.3937 11.0964 10.7438 9.2304 12.48 7.63835C13.0478 7.22617 13.6678 6.95086 14.34 6.81241ZM7.14 11.0339C7.97064 11.0562 8.77068 11.2295 9.54 11.5539C9.82182 13.3945 10.7218 14.822 12.24 15.8366C9.16266 17.3078 7.68264 19.7856 7.8 23.2701C5.62 23.2701 3.44 23.2701 1.26 23.2701C1.25 20.9451 1.26 18.6203 1.29 16.2955C1.80833 13.5848 3.37832 11.8819 6 11.1868C6.38862 11.1341 6.76866 11.0831 7.14 11.0339ZM22.74 11.0339C25.5351 11.2035 27.4451 12.6106 28.47 15.2554C28.5806 15.6153 28.6606 15.9824 28.71 16.3566C28.74 18.661 28.75 20.9655 28.74 23.2701C26.56 23.2701 24.38 23.2701 22.2 23.2701C22.3173 19.7856 20.8373 17.3078 17.76 15.8366C19.2782 14.822 20.1782 13.3945 20.46 11.5539C21.1984 11.2431 21.9584 11.0697 22.74 11.0339ZM14.94 16.5402C17.66 16.687 19.55 18.033 20.61 20.5781C20.7476 20.9764 20.8476 21.3843 20.91 21.8017C20.94 24.1266 20.95 26.4514 20.94 28.7764C16.98 28.7764 13.02 28.7764 9.06 28.7764C9.04998 26.4514 9.06 24.1266 9.09 21.8017C9.60822 19.0912 11.1782 17.3883 13.8 16.6931C14.1886 16.6404 14.5687 16.5894 14.94 16.5402Z" fill="black"/>
</svg>
