<svg width="30" height="30" viewBox="0 0 30 30" fill="none" xmlns="http://www.w3.org/2000/svg">
<path d="M13.6369 0.161818L13.4433 0.332512L13.4257 1.7275L13.4081 3.12249L8.09797 11.7455C5.17593 16.4897 2.77609 20.4392 2.75849 20.5275C2.73502 20.6217 2.76436 20.7688 2.8113 20.863C2.99906 21.2338 2.71155 21.2338 8.3092 20.9101L13.414 20.6217V21.3103C13.414 21.6929 13.4081 22.0049 13.4022 22.0049C13.3905 22.0108 10.4567 22.2285 6.87752 22.4993C-0.333715 23.0467 0.123955 22.9819 0.0124714 23.4293C-0.0286015 23.6059 0.018339 23.806 0.358658 24.836C0.916076 26.5194 1.19772 27.0374 2.01331 27.8968C3.09294 29.0387 4.41901 29.7332 5.93871 29.951C6.27316 29.9981 8.63779 30.0099 14.2941 29.9922C21.3704 29.9745 22.2271 29.9628 22.5674 29.8745C24.3159 29.433 25.7417 28.4618 26.6747 27.0727C26.8155 26.8608 27.6252 25.5365 28.476 24.1297C29.9429 21.6988 30.025 21.5516 29.9957 21.328C29.9546 20.9984 29.7493 20.8277 29.3855 20.8277C29.2329 20.8277 25.953 21.0631 22.098 21.3574C18.243 21.6458 14.9748 21.8871 14.8398 21.8871H14.5875V21.2103C14.5875 20.7099 14.6051 20.5334 14.6638 20.5334C14.8222 20.5334 24.3218 19.8859 24.6152 19.8506C25.1784 19.7917 25.4131 19.3974 25.1726 18.9265C25.0494 18.6969 14.6051 0.420803 14.4877 0.250109C14.3 -0.0441933 13.9069 -0.0853958 13.6369 0.161818ZM19.1583 10.7567C21.6462 15.1123 23.6822 18.6851 23.6822 18.7087C23.6822 18.7263 21.8163 18.8676 19.5338 19.0207C17.2455 19.1796 15.2036 19.3208 14.9865 19.3385L14.5875 19.3738V11.0863C14.5875 6.52461 14.5992 2.81053 14.611 2.8223C14.6227 2.83407 16.6705 6.40689 19.1583 10.7567ZM13.3612 19.415C13.3025 19.4503 4.49529 19.9624 4.46595 19.933C4.45422 19.9212 6.45505 16.6486 8.91356 12.6579L13.3846 5.40038L13.4022 12.393C13.4081 16.678 13.3905 19.3915 13.3612 19.415ZM28.3176 22.0932C28.3176 22.1108 27.8188 22.9702 27.7543 23.0526C27.7484 23.0644 26.927 23.135 25.9354 23.2174C24.9379 23.2939 24.0343 23.3704 23.9228 23.394C23.4475 23.4764 23.2774 24.0238 23.6177 24.3652C23.8289 24.5712 23.8465 24.5712 25.6478 24.424C26.3578 24.3652 26.9446 24.324 26.9563 24.3298C26.9798 24.3534 25.9236 26.0957 25.6302 26.5194C25.4953 26.7196 25.1608 27.0904 24.8909 27.3435C24.1282 28.0557 23.2598 28.5148 22.2505 28.7208C21.7459 28.8268 21.3059 28.8327 14.0242 28.8327C8.80208 28.8327 6.22622 28.815 5.98565 28.7679C4.86494 28.5678 3.94961 28.1146 3.12228 27.3553C2.77023 27.0315 2.26562 26.4135 2.26562 26.3076C2.26562 26.2722 2.33603 26.2428 2.42991 26.2428C2.51792 26.2428 5.93284 25.9779 10.0284 25.6542C18.2195 25.0126 17.756 25.0715 17.8792 24.6477C17.9672 24.3652 17.8557 24.1297 17.58 23.9943C17.3805 23.9002 17.0871 23.9178 9.57073 24.5123C5.28154 24.8478 1.73753 25.1127 1.7082 25.1009C1.64365 25.0774 1.38548 24.3298 1.38548 24.1768C1.38548 24.1062 3.66796 23.9237 14.7224 23.0879C29.5263 21.9637 28.3176 22.052 28.3176 22.0932Z" fill="black"/>
<path d="M20.0328 23.7412C19.5341 24.0178 19.7336 24.8301 20.2969 24.8301C20.5492 24.8301 20.8367 24.6064 20.8836 24.3769C20.9188 24.1944 20.8132 23.9001 20.6724 23.7824C20.5316 23.6646 20.2089 23.6411 20.0328 23.7412Z" fill="black"/>
</svg>
