<svg width="30" height="30" viewBox="0 0 30 30" fill="none" xmlns="http://www.w3.org/2000/svg">
<rect width="30" height="30" rx="10" fill="#E7BF8B"/>
<path d="M14.5478 3.80187C14.2506 3.89578 13.9914 4.06654 13.7666 4.31841C13.6141 4.49344 12.7071 6.14981 9.54402 12.0239C7.32984 16.1435 5.47771 19.6056 5.42436 19.7252C4.97848 20.7369 5.42055 21.9664 6.3771 22.4018V22.4018C6.52284 22.4666 6.68053 22.5 6.84 22.5H15.0013H23.1626C23.3221 22.5 23.4798 22.4666 23.6255 22.4018V22.4018C24.5935 21.9621 25.0242 20.7284 24.5669 19.7038C24.4068 19.3452 16.4647 4.60444 16.339 4.43368C16.1789 4.21596 15.8664 3.96836 15.6187 3.8659C15.3329 3.7421 14.8298 3.71222 14.5478 3.80187ZM15.1652 5.20636C15.2338 5.23624 15.3214 5.30882 15.3672 5.36431C15.4929 5.52227 23.4274 20.2929 23.4617 20.4295C23.5265 20.6814 23.3855 20.9632 23.1454 21.0656C22.9929 21.1297 7.00972 21.1297 6.85728 21.0656C6.61719 20.9632 6.47619 20.6814 6.54097 20.4295C6.57527 20.2929 14.5097 5.52227 14.6355 5.36431C14.7155 5.26186 14.9022 5.15086 14.9937 5.1466C15.0204 5.1466 15.0966 5.17221 15.1652 5.20636Z" fill="white"/>
<path d="M14.6936 9.81102C14.5128 9.88349 14.4172 9.97302 14.3217 10.1734C14.2568 10.3055 14.25 10.3865 14.25 10.9791C14.25 11.3415 14.2739 12.3092 14.3012 13.132C14.3319 13.9506 14.366 14.9737 14.3797 15.4C14.407 16.2484 14.4138 16.2782 14.6424 16.4274C14.8028 16.534 15.1885 16.5212 15.3659 16.4019C15.5877 16.2569 15.6048 16.1887 15.6321 15.1997C15.6423 14.7179 15.6765 13.7417 15.7038 13.0254C15.7618 11.4395 15.7652 10.3695 15.714 10.2416C15.5434 9.82807 15.11 9.64476 14.6936 9.81102Z" fill="white"/>
<path d="M14.8212 17.2758C14.3519 17.4425 14.1124 18.2281 14.3325 18.8804C14.5105 19.4137 14.9312 19.6422 15.284 19.4089C15.5947 19.2042 15.75 18.8518 15.75 18.3662C15.75 18.0234 15.6788 17.771 15.5202 17.5472C15.3519 17.3092 15.051 17.1949 14.8212 17.2758Z" fill="white"/>
</svg>
