<!-- sample rectangle -->
<svg width="200" height="200" viewBox="0 0 200 200" fill="none" xmlns="http://www.w3.org/2000/svg">
<g clip-path="url(#clip0_592_368)">
<path opacity="0.958" fill-rule="evenodd" clip-rule="evenodd" d="M182.5 35.1667C182.746 35.1231 182.969 35.1787 183.167 35.3334C157.427 70.2107 123.539 81.8774 81.5 70.3334C76.2533 68.9187 71.2533 66.9187 66.5 64.3334C99.7647 74.2307 131.32 70.3421 161.167 52.6667C168.922 47.6347 176.033 41.8014 182.5 35.1667Z" fill="#72CDF5"/>
<path opacity="0.95" fill-rule="evenodd" clip-rule="evenodd" d="M73.8337 39.1667C97.2637 39.0507 118.264 46.0507 136.834 60.1667C127.715 55.3997 118.049 51.6774 107.834 49C75.1447 41.272 44.7557 46.5497 16.667 64.8334C32.4934 49.398 51.549 40.8424 73.8337 39.1667Z" fill="#004A8C"/>
<path opacity="0.979" fill-rule="evenodd" clip-rule="evenodd" d="M-0.166992 82.5C-0.166992 81.9443 -0.166992 81.389 -0.166992 80.8333C7.04554 80.896 14.2678 80.785 21.4997 80.5C25.7735 80.314 29.7735 81.2587 33.4997 83.3333C38.5777 87.924 39.8553 93.424 37.333 99.8333C33.6893 105.422 28.5226 107.811 21.833 107C19.5083 106.297 17.1749 105.741 14.833 105.333C14.5118 106.689 14.4007 108.078 14.4997 109.5C11.7158 109.092 8.93804 108.647 6.16634 108.167C6.22187 100.499 6.16634 92.8327 5.99967 85.1667C5.72191 84.4443 5.22191 83.9443 4.49967 83.6667C2.89914 83.3853 1.34359 82.9967 -0.166992 82.5ZM17.4997 81.1667C24.1785 81.0893 28.2341 84.3113 29.6663 90.8333C30.6079 95.897 29.2191 100.175 25.4997 103.667C22.4297 105.57 19.2074 105.904 15.833 104.667C15.333 104.389 14.9441 104 14.6663 103.5C14.4441 97.389 14.4441 91.2777 14.6663 85.1667C14.7304 83.1313 15.6749 81.798 17.4997 81.1667Z" fill="#72CDF5"/>
<path opacity="0.966" fill-rule="evenodd" clip-rule="evenodd" d="M118.167 85.8334C118.715 85.7621 119.215 85.8734 119.667 86.1667C119.684 89.4221 119.906 92.6444 120.334 95.8334C121.392 96.2427 122.447 96.1871 123.5 95.6667C124.843 94.5451 126.343 93.7117 128 93.1667C128.369 93.1951 128.703 93.3064 129 93.5001C129.223 94.6111 129.223 95.7224 129 96.8334C126.193 97.1061 123.36 97.2727 120.5 97.3334C120.334 97.5001 120.167 97.6667 120 97.8334C119.889 102.167 119.778 106.5 119.667 110.833C117.3 110.327 114.911 109.882 112.5 109.5C112.556 105.721 112.5 101.943 112.334 98.1667C112.209 97.8614 112.042 97.5834 111.834 97.3334C110.505 97.1671 109.172 97.1114 107.834 97.1667C107.754 96.5111 107.865 95.8997 108.167 95.3334C114.171 94.9397 117.504 91.7731 118.167 85.8334Z" fill="#72CDF5"/>
<path opacity="0.973" fill-rule="evenodd" clip-rule="evenodd" d="M89.1667 92.1667C89.7223 92.1667 90.2777 92.1667 90.8333 92.1667C90.6837 94.1174 90.8503 96.0064 91.3333 97.8334C93.6747 95.0801 96.6193 93.5244 100.167 93.1667C104.394 93.2281 106.117 95.3391 105.333 99.5001C104.328 101.197 102.828 101.975 100.833 101.833C99.708 101.937 98.708 101.659 97.8333 101C96.7813 99.8961 95.8923 98.6737 95.1667 97.3334C94.2777 96.6667 93.389 96.6667 92.5 97.3334C91.743 98.3704 91.354 99.5371 91.3333 100.833C91.1667 103.498 91.1113 106.164 91.1667 108.833C88.7303 109.321 86.286 109.765 83.8333 110.167C83.8563 107.599 83.6897 105.044 83.3333 102.5C83.139 101.999 82.8613 101.555 82.5 101.167C81.3827 100.925 80.2717 100.647 79.1667 100.333C78.7133 99.6874 78.8243 99.1321 79.5 98.6667C84.2147 98.6474 87.437 96.4807 89.1667 92.1667Z" fill="#72CDF5"/>
<path opacity="0.966" fill-rule="evenodd" clip-rule="evenodd" d="M57.1663 92.5C69.2983 92.8543 75.5207 99.0767 75.833 111.167C73.361 111.008 70.9167 110.675 68.4997 110.167C67.2447 104.823 64.8 100.101 61.1663 96C56.479 92.3207 52.3123 92.8207 48.6663 97.5C47.184 100.915 46.6283 104.471 46.9997 108.167C44.6327 108.673 42.244 109.118 39.833 109.5C41.2147 99.3403 46.9927 93.6737 57.1663 92.5Z" fill="#72CDF5"/>
<path opacity="0.965" fill-rule="evenodd" clip-rule="evenodd" d="M150.5 92.5C162.298 92.799 168.576 98.799 169.334 110.5C169.092 110.686 168.814 110.797 168.5 110.833C166.129 110.476 163.796 109.976 161.5 109.333C160.376 104.696 158.32 100.529 155.334 96.8333C150.224 92.0567 145.668 92.501 141.667 98.1667C140.51 101.65 140.01 105.205 140.167 108.833C137.866 109.449 135.533 109.894 133.167 110.167C133.697 102.493 137.475 97.104 144.5 94C146.507 93.3453 148.507 92.8453 150.5 92.5Z" fill="#72CDF5"/>
<path opacity="0.963" fill-rule="evenodd" clip-rule="evenodd" d="M184.5 92.8332C186.725 92.7779 188.948 92.8332 191.167 92.9999C193.188 93.1129 195.132 93.5016 197 94.1666C197.292 94.6242 197.459 95.1242 197.5 95.6666C197.266 97.3809 197.099 99.1029 197 100.833C196.444 101.566 195.777 101.677 195 101.167C194.174 97.5619 192.119 94.9509 188.834 93.3332C183.778 93.0556 181.389 95.4442 181.667 100.5C181.929 101.095 182.317 101.595 182.834 102C186.299 103.843 189.854 105.51 193.5 107C193.945 107.333 194.389 107.667 194.834 108C190.409 109.099 185.909 109.932 181.334 110.5C177.142 109.753 174.976 107.253 174.834 103C174.794 99.5222 176.239 96.8556 179.167 94.9999C180.868 93.9792 182.646 93.2569 184.5 92.8332Z" fill="#72CDF5"/>
<path opacity="0.945" fill-rule="evenodd" clip-rule="evenodd" d="M-0.166992 126.833C-0.166992 126.389 -0.166992 125.944 -0.166992 125.5C1.46794 125.03 3.13461 124.642 4.83301 124.333C5.34927 123.929 5.73817 123.429 5.99967 122.833C6.16631 118.724 6.22184 114.613 6.16634 110.5C13.3314 111.898 20.5537 112.898 27.833 113.5C34.012 113.009 40.123 112.064 46.1663 110.667C50.3887 110 54.6107 110 58.833 110.667C64.7187 111.99 70.663 112.935 76.6663 113.5C82.7737 112.901 88.8293 111.956 94.833 110.667C98.944 110 103.055 110 107.166 110.667C113.105 112.008 119.105 112.953 125.166 113.5C131.227 112.953 137.227 112.008 143.166 110.667C145.21 110.363 147.266 110.196 149.333 110.167C157.552 111.277 165.775 112.388 174 113.5C181.623 112.859 189.178 111.748 196.666 110.167C197.902 110.744 198.68 111.744 199 113.167C199.888 121.287 196.277 126.12 188.166 127.667C183.525 128.294 179.08 127.627 174.833 125.667C174.389 122.556 174.389 119.444 174.833 116.333C172.602 116.056 170.38 116.112 168.166 116.5C165.584 123.025 160.807 126.747 153.833 127.667C144.236 128.593 137.57 124.649 133.833 115.833C133.555 115.722 133.277 115.611 133 115.5C128.664 116.209 124.33 116.32 120 115.833C119.798 123.66 123.02 125.438 129.666 121.167C130.099 121.363 130.377 121.697 130.5 122.167C127.435 126.544 123.212 128.377 117.833 127.667C115.078 126.8 113.356 124.967 112.666 122.167C112.5 119.614 112.444 117.058 112.5 114.5C105.411 112.879 98.2997 112.768 91.1663 114.167C91.0283 117.194 91.195 120.194 91.6663 123.167C92.036 123.938 92.6473 124.438 93.4997 124.667C94.762 124.72 95.9843 124.942 97.1663 125.333C98.0553 126 98.0553 126.667 97.1663 127.333C90.9387 127.186 84.7167 127.131 78.4997 127.167C78.084 126.653 78.084 126.153 78.4997 125.667C79.676 125.178 80.898 124.845 82.1663 124.667C82.7773 124.5 83.1663 124.111 83.333 123.5C83.7347 120.96 83.9013 118.405 83.833 115.833C80.829 115.978 77.829 116.2 74.833 116.5C71.612 124.115 65.8343 127.893 57.4997 127.833C48.9753 127.379 43.253 123.157 40.333 115.167C40.146 114.993 39.9237 114.882 39.6663 114.833C31.2813 116.58 22.8924 116.58 14.4997 114.833C14.3764 117.634 14.543 120.412 14.9997 123.167C15.3886 123.556 15.7774 123.944 16.1663 124.333C17.7334 124.643 19.289 124.976 20.833 125.333C21.7219 126 21.7219 126.667 20.833 127.333C15.0547 127.136 9.27697 127.191 3.49967 127.5C2.49967 127.444 1.49967 127.389 0.499674 127.333C0.318273 127.094 0.0960512 126.928 -0.166992 126.833ZM48.1663 113.5C55.0807 112.804 61.8587 113.582 68.4997 115.833C68.185 118.833 67.2407 121.61 65.6663 124.167C62.6507 127.635 59.2617 128.024 55.4997 125.333C51.9897 122.033 49.5453 118.089 48.1663 113.5ZM145.166 113.167C150.708 112.828 156.152 113.384 161.5 114.833C161.797 119.217 160.353 122.94 157.166 126C154.083 127.621 151.194 127.288 148.5 125C145.308 122.008 143.085 118.397 141.833 114.167C142.944 113.712 144.055 113.378 145.166 113.167ZM188.166 114.5C192.934 116.159 194.101 119.27 191.666 123.833C187.519 128.748 183.519 128.637 179.666 123.5C178.494 121.26 177.549 118.927 176.833 116.5C180.681 115.983 184.459 115.317 188.166 114.5Z" fill="#004A8C"/>
<path opacity="0.917" fill-rule="evenodd" clip-rule="evenodd" d="M33.4997 136.833C33.8317 136.805 34.1094 136.916 34.3331 137.167C34.4441 145.167 34.5554 153.167 34.6664 161.167C34.8961 161.452 35.1737 161.674 35.4997 161.833C36.2701 161.595 36.9924 161.262 37.6664 160.833C38.1214 161.198 38.2327 161.642 37.9997 162.167C35.4041 164.982 32.7929 165.093 30.1664 162.5C26.4771 165.181 22.8104 165.125 19.1664 162.333C15.3025 156.948 15.7469 151.948 20.4997 147.333C23.5406 145.407 26.7628 145.018 30.1664 146.167C30.2215 144.939 30.1659 143.717 29.9997 142.5C29.5217 141.955 28.9106 141.621 28.1664 141.5C27.8055 141.212 27.7499 140.878 27.9997 140.5C30.5837 140.418 32.4171 139.196 33.4997 136.833ZM25.4997 146.167C28.2108 145.933 29.8219 147.155 30.3331 149.833C30.5553 153.5 30.5553 157.167 30.3331 160.833C30.0716 161.429 29.6827 161.929 29.1664 162.333C24.8747 162.935 22.2636 161.101 21.3331 156.833C20.3063 152.233 21.6952 148.677 25.4997 146.167Z" fill="#004A8C"/>
<path opacity="0.965" fill-rule="evenodd" clip-rule="evenodd" d="M119.834 137.167C120.166 137.138 120.443 137.249 120.667 137.5C120.778 145.722 120.889 153.944 121 162.167C121.609 162.691 122.331 162.969 123.167 163C123.446 163.337 123.557 163.726 123.5 164.167C120.278 164.167 117.056 164.167 113.834 164.167C113.777 163.726 113.888 163.337 114.167 163C114.963 162.899 115.685 162.621 116.334 162.167C116.556 155.722 116.556 149.278 116.334 142.833C115.561 142.393 114.838 141.893 114.167 141.333C114.215 141.076 114.326 140.854 114.5 140.667C117.007 140.582 118.785 139.415 119.834 137.167Z" fill="#004A8D"/>
<path opacity="0.923" fill-rule="evenodd" clip-rule="evenodd" d="M80.5 138.833C83.567 138.634 86.567 138.968 89.5 139.833C90.3477 141.388 90.6257 143.055 90.3333 144.833C89.9757 145.093 89.5867 145.038 89.1667 144.667C86.1137 138.881 82.0023 137.992 76.8333 142C71.6223 148.481 71.5667 154.981 76.6667 161.5C79.0777 163.561 81.8 164.173 84.8333 163.333C86.211 161.717 86.7663 159.828 86.5 157.667C86.515 156.36 86.3483 155.082 86 153.833C85.8333 153.667 85.6667 153.5 85.5 153.333C84.611 153.222 83.7223 153.111 82.8333 153C82.5543 152.663 82.4433 152.274 82.5 151.833C86.5 151.833 90.5 151.833 94.5 151.833C94.573 152.225 94.462 152.558 94.1667 152.833C93.1323 152.974 92.188 153.308 91.3333 153.833C91.2223 156.5 91.111 159.167 91 161.833C87.3853 164.112 83.441 164.945 79.1667 164.333C72.088 163.255 68.1993 159.143 67.5 152C68.5393 144.35 72.8727 139.961 80.5 138.833Z" fill="#004A8C"/>
<path opacity="0.899" fill-rule="evenodd" clip-rule="evenodd" d="M157.167 138.833C159.703 138.787 160.647 140.009 160 142.5C158.288 143.986 156.844 143.763 155.667 141.833C155.459 140.471 155.959 139.471 157.167 138.833Z" fill="#004A8C"/>
<path opacity="0.928" fill-rule="evenodd" clip-rule="evenodd" d="M128.5 138.833C130.714 138.88 131.658 139.991 131.333 142.167C130.029 143.809 128.585 143.92 127 142.5C126.463 140.767 126.963 139.545 128.5 138.833Z" fill="#004A8C"/>
<path opacity="0.928" fill-rule="evenodd" clip-rule="evenodd" d="M46.4998 145.5C48.9918 145.298 51.3252 145.798 53.4998 147C55.0675 148.294 55.7341 149.905 55.4998 151.833C51.6158 152.111 47.7268 152.278 43.8332 152.333C43.4442 152.5 43.1665 152.778 42.9998 153.167C42.7012 158.243 45.0345 161.243 49.9998 162.167C51.9398 161.872 53.6622 161.094 55.1665 159.833C55.5378 160.241 55.5935 160.685 55.3332 161.167C51.5622 164.724 47.2842 165.446 42.4998 163.333C38.7142 160.644 37.4362 157.033 38.6665 152.5C39.9748 148.691 42.5858 146.358 46.4998 145.5ZM46.8331 146.167C48.5008 146.028 49.8898 146.584 50.9998 147.833C51.5382 149.363 51.0382 150.308 49.4998 150.667C47.5028 150.833 45.5028 150.889 43.4998 150.833C43.7978 148.676 44.9092 147.121 46.8331 146.167Z" fill="#004A8C"/>
<path opacity="0.936" fill-rule="evenodd" clip-rule="evenodd" d="M99.833 145.5C101.614 145.445 103.392 145.5 105.166 145.667C107.791 146.069 109.291 147.569 109.666 150.167C109.777 153.833 109.889 157.5 110 161.167C110.333 161.389 110.666 161.611 111 161.833C111.743 161.477 112.465 161.199 113.166 161C113.455 161.772 113.233 162.439 112.5 163C109.357 165.394 106.857 164.894 105 161.5C102.865 163.817 100.254 164.65 97.1663 164C95.6187 163.128 94.841 161.795 94.833 160C95.098 157.175 96.5423 155.175 99.1663 154C101.077 153.314 103.022 152.814 105 152.5C105.222 151.167 105.222 149.833 105 148.5C104.587 146.309 103.309 145.587 101.166 146.333C100.897 146.436 100.675 146.603 100.5 146.833C100.483 147.888 100.427 148.999 100.333 150.167C99.2337 151.925 97.7893 152.258 95.9997 151.167C95.2657 149.753 95.3767 148.419 96.333 147.167C97.4203 146.382 98.587 145.826 99.833 145.5ZM104.166 153.167C104.498 153.138 104.776 153.249 105 153.5C105.296 155.971 105.185 158.416 104.666 160.833C101.648 163.023 99.703 162.246 98.833 158.5C99.4077 155.481 101.186 153.703 104.166 153.167Z" fill="#004A8C"/>
<path opacity="0.948" fill-rule="evenodd" clip-rule="evenodd" d="M130.167 145.5C131.163 145.385 131.607 145.829 131.5 146.833C131.127 151.827 131.072 156.827 131.333 161.833C131.972 162.595 132.806 163.04 133.833 163.167C134.129 163.442 134.24 163.775 134.167 164.167C130.833 164.167 127.5 164.167 124.167 164.167C124.11 163.726 124.221 163.337 124.5 163C125.714 163.096 126.547 162.596 127 161.5C127.302 157.814 127.191 154.147 126.667 150.5C126.089 150.25 125.478 150.084 124.833 150C124.554 149.663 124.443 149.274 124.5 148.833C127.074 148.826 128.963 147.715 130.167 145.5Z" fill="#004A8C"/>
<path opacity="0.916" fill-rule="evenodd" clip-rule="evenodd" d="M143.833 145.5C146.253 145.395 148.586 145.784 150.833 146.667C152.604 148.254 152.604 149.809 150.833 151.333C149.242 151.787 148.075 151.287 147.333 149.833C147.899 146.844 146.732 145.677 143.833 146.333C140.795 148.657 139.35 151.768 139.5 155.667C139.281 159.962 141.17 162.796 145.166 164.167C146.181 163.941 147.181 163.663 148.166 163.333C149.231 162.358 150.176 161.303 151 160.167C151.337 160.446 151.726 160.557 152.166 160.5C152.092 161.854 151.425 162.798 150.166 163.333C146.337 164.965 142.56 164.853 138.833 163C134.759 159.927 133.704 155.983 135.666 151.167C137.625 148.161 140.348 146.272 143.833 145.5Z" fill="#004A8C"/>
<path opacity="0.948" fill-rule="evenodd" clip-rule="evenodd" d="M158.833 145.5C159.277 145.5 159.722 145.5 160.166 145.5C160.111 151.057 160.166 156.612 160.333 162.167C160.942 162.691 161.664 162.969 162.5 163C162.779 163.337 162.89 163.726 162.833 164.167C159.445 164.324 156.111 164.158 152.833 163.667C153.701 163.044 154.645 162.544 155.666 162.167C155.889 158.5 155.889 154.833 155.666 151.167C155.237 150.285 154.515 149.952 153.5 150.167C153.5 149.722 153.5 149.278 153.5 148.833C156.034 148.901 157.812 147.79 158.833 145.5Z" fill="#004A8C"/>
<path opacity="0.937" fill-rule="evenodd" clip-rule="evenodd" d="M169.167 145.5C170.948 145.445 172.726 145.5 174.5 145.667C176.543 145.88 177.932 146.936 178.667 148.833C178.778 152.5 178.889 156.167 179 159.833C179.503 161.95 180.559 162.283 182.167 160.833C182.907 161.571 182.796 162.293 181.834 163C178.676 165.391 176.176 164.891 174.334 161.5C172.199 163.817 169.588 164.65 166.5 164C164.953 163.128 164.175 161.795 164.167 160C164.432 157.175 165.876 155.175 168.5 154C170.411 153.314 172.356 152.814 174.334 152.5C174.556 151.167 174.556 149.833 174.334 148.5C173.921 146.309 172.643 145.587 170.5 146.333C170.231 146.436 170.009 146.603 169.834 146.833C169.782 147.909 169.726 149.02 169.667 150.167C168.37 152.086 166.814 152.309 165 150.833C164.654 149.489 164.876 148.267 165.667 147.167C166.754 146.382 167.921 145.826 169.167 145.5ZM173.5 153.167C173.832 153.138 174.11 153.249 174.334 153.5C174.63 155.971 174.519 158.416 174 160.833C172.137 162.673 170.359 162.562 168.667 160.5C167.887 158.23 168.387 156.285 170.167 154.667C171.272 154.057 172.383 153.557 173.5 153.167Z" fill="#004A8C"/>
</g>
<defs>
<clipPath id="clip0_592_368">
<rect width="200" height="200" fill="white"/>
</clipPath>
</defs>
</svg>
