<svg width="20" height="20" viewBox="0 0 20 20" fill="none" xmlns="http://www.w3.org/2000/svg">
<path d="M0.429688 0.0258795C0.292969 0.104853 0.148438 0.311398 0.078125 0.530092C0 0.767012 0 0.924958 0 10.0069C0 19.0888 0 19.2467 0.078125 19.4836C0.121094 19.6112 0.210938 19.7813 0.28125 19.8603L0.410156 20H10H19.5898L19.7188 19.8603C19.7891 19.7813 19.8789 19.6112 19.9219 19.4836C20 19.2467 20 19.0888 20 10.0069C20 0.924958 20 0.767012 19.9219 0.530092C19.8789 0.40252 19.7891 0.232425 19.7188 0.153451L19.5898 0.0137298L10.0391 0.00158006C4.78516 -0.00449479 0.460938 0.00765492 0.429688 0.0258795ZM19.3359 10.0069V19.0584H10H0.664062V10.0069V0.955332H10H19.3359V10.0069Z" fill="#008ECB"/>
<path d="M1.28906 10.0071V18.0259H10H18.7109V10.0071V1.98826H10H1.28906V10.0071ZM18.0469 10.0071V17.0539H10H1.95313V10.0071V2.96024H10H18.0469V10.0071Z" fill="#008ECB"/>
<path d="M2.57812 4.47861V4.9646H2.91016H3.24219V4.47861V3.99262H2.91016H2.57812V4.47861Z" fill="#008ECB"/>
<path d="M16.7578 4.47861V4.9646H17.0898H17.4219V4.47861V3.99262H17.0898H16.7578V4.47861Z" fill="#008ECB"/>
<path d="M4.17966 6.54391C3.55075 6.75046 3.04294 7.59486 2.92966 8.62759C2.85544 9.25937 2.8945 11.4099 2.98435 11.7987C3.15622 12.5337 3.57419 13.1777 4.0195 13.3903C4.332 13.5421 4.80075 13.5239 5.08981 13.3538C5.62888 13.0319 6.02341 12.2482 6.11325 11.3248L6.1406 11.0393H5.80466H5.46872V11.2033C5.46481 11.6164 5.19919 12.1753 4.90231 12.3818C4.72653 12.5094 4.42966 12.5276 4.19919 12.4304C3.99216 12.3454 3.66794 11.829 3.60153 11.4888C3.53903 11.1547 3.53903 8.8645 3.60153 8.53646C3.66403 8.19627 3.94528 7.72851 4.16013 7.60701C4.42185 7.44906 4.78513 7.50374 5.02341 7.73458C5.24216 7.94113 5.42575 8.36029 5.457 8.72478L5.48044 8.97385H5.80856H6.1406L6.11325 8.68833C6.02341 7.75888 5.63278 6.9813 5.09372 6.66541C4.84372 6.51961 4.42575 6.46494 4.17966 6.54391Z" fill="#008ECB"/>
<path d="M8.71094 6.99956V7.51592H9.58203H10.457L10.5469 7.6678C10.6289 7.80144 10.6445 7.89864 10.6562 8.38463C10.6758 9.04071 10.6133 9.36268 10.4492 9.45988C10.3906 9.49633 10.1172 9.52063 9.83984 9.52063H9.33594V10.0066V10.4926H9.83984C10.1172 10.4926 10.3906 10.5169 10.4492 10.5534C10.6133 10.6505 10.6758 10.9725 10.6562 11.6286C10.6445 12.1146 10.6289 12.2118 10.5469 12.3454L10.457 12.4973H9.58203H8.71094V13.0137V13.53H9.5625C10.4922 13.53 10.6797 13.4875 10.918 13.202C10.9922 13.1109 11.1016 12.9104 11.1602 12.7524C11.2656 12.473 11.2695 12.4426 11.2695 11.5253C11.2695 10.6141 11.2656 10.5716 11.1641 10.2921L11.0586 10.0066L11.1641 9.71502C11.2656 9.44165 11.2695 9.39913 11.2695 8.4879C11.2695 7.5706 11.2656 7.54022 11.1602 7.26078C11.1016 7.10283 10.9922 6.90236 10.918 6.81124C10.6797 6.52572 10.4922 6.4832 9.5625 6.4832H8.71094V6.99956Z" fill="#008ECB"/>
<path d="M12.9492 6.53787C12.5508 6.70189 12.2344 7.10891 12.0664 7.6678C11.9727 7.97154 11.9531 8.11126 11.9531 8.50005V8.97389H12.2656H12.5781V8.65192C12.5781 8.27528 12.6992 7.85612 12.8594 7.67387C12.9297 7.60097 13.0508 7.5463 13.1914 7.52807C13.3789 7.50985 13.4414 7.52807 13.5508 7.64957C13.7891 7.90471 13.8477 8.08089 13.8477 8.56687C13.8438 9.28978 13.7891 9.41735 12.8125 10.9482L11.9531 12.2908V12.9104V13.53L13.2344 13.5179L14.5117 13.4997V13.0137V12.5277L13.6211 12.4973L12.7344 12.4669L13.418 11.4038C14.293 10.0491 14.4102 9.77577 14.4922 8.85847C14.5742 7.92901 14.2969 7.09676 13.7695 6.69582C13.5547 6.5318 13.1523 6.45282 12.9492 6.53787Z" fill="#008ECB"/>
<path d="M15.1562 6.99956V7.51592H15.4883H15.8203V10.0066V12.4973H15.4883H15.1562V13.0137V13.53H16.1328H17.1133L17.1016 13.0258L17.0898 12.5277L16.7695 12.5095L16.4453 12.4912V9.49025V6.4832H15.8008H15.1562V6.99956Z" fill="#008ECB"/>
<path d="M6.75781 10.0067V10.4927H7.73438H8.71094V10.0067V9.5207H7.73438H6.75781V10.0067Z" fill="#008ECB"/>
<path d="M2.57812 15.535V16.021H2.91016H3.24219V15.535V15.049H2.91016H2.57812V15.535Z" fill="#008ECB"/>
<path d="M16.7578 15.535V16.021H17.0898H17.4219V15.535V15.049H17.0898H16.7578V15.535Z" fill="#008ECB"/>
</svg>
