<svg width="25" height="25" viewBox="0 0 25 25" fill="none" xmlns="http://www.w3.org/2000/svg">
<path d="M2.02323 0.0873604C1.09094 0.386883 0.30019 1.44823 0.0805389 2.67236C-0.0268463 3.30396 -0.0268463 21.6919 0.0805389 22.3235C0.251379 23.2872 0.802948 24.2053 1.47166 24.622C1.67179 24.7523 1.9549 24.889 2.09645 24.9281C2.27705 24.9802 5.33265 24.9997 12.5177 24.9997C23.6858 24.9997 22.9682 25.0257 23.593 24.6025C24.2276 24.1727 24.7987 23.17 24.9451 22.2128C25.0183 21.7245 25.0183 3.2714 24.9451 2.78305C24.7987 1.82588 24.2276 0.823141 23.593 0.393393C22.9682 -0.0298424 23.6955 -0.00379753 12.4786 0.00271416C4.41988 0.00922585 2.22336 0.0222473 2.02323 0.0873604ZM22.9975 1.56543C23.388 1.80635 23.6077 2.09285 23.7883 2.58771L23.9493 3.02397V12.4979V21.9719L23.7883 22.4082C23.6077 22.903 23.388 23.1895 22.9975 23.4305L22.729 23.5998H12.5031H2.27705L1.95002 23.3849C1.57905 23.144 1.36428 22.851 1.18368 22.33L1.05677 21.9719V12.4979V3.02397L1.18368 2.66585C1.41309 2.02122 1.74989 1.63054 2.24777 1.45474C2.42349 1.38963 4.67858 1.3766 12.6007 1.38311L22.729 1.39614L22.9975 1.56543Z" fill="#008ECB"/>
<path d="M7.44634 5.59608C6.37737 5.81096 5.49388 6.91788 5.27423 8.31781C5.19613 8.8257 5.24006 9.71124 5.36697 10.1866C5.75746 11.6125 6.84596 12.5762 7.96374 12.4786C9.29629 12.3613 10.3213 10.994 10.3945 9.24242C10.419 8.55873 10.3506 8.09643 10.1407 7.51041C9.6575 6.16908 8.53483 5.3747 7.44634 5.59608ZM8.4909 7.15229C8.80818 7.36716 9.06688 7.71877 9.21819 8.12248C9.33534 8.43502 9.35486 8.57176 9.35486 9.01453C9.34998 9.69822 9.22307 10.1019 8.86187 10.5382C8.25173 11.2805 7.38288 11.2805 6.77274 10.5382C6.02104 9.62659 6.1089 8.06387 6.95822 7.30205C7.28038 7.01555 7.43169 6.96346 7.89052 6.9895C8.17851 7.00253 8.33471 7.0416 8.4909 7.15229Z" fill="#008ECB"/>
<path d="M14.743 7.15183C14.5038 7.47089 14.5673 8.02435 14.865 8.23271C15.0017 8.32387 15.3287 8.33689 18.2964 8.31736L21.5717 8.29782L21.6986 8.14155C21.9475 7.82901 21.8939 7.21694 21.601 7.03463C21.5131 6.98254 20.5076 6.963 18.1842 6.963H14.8845L14.743 7.15183Z" fill="#008ECB"/>
<path d="M14.8353 12.6085C14.562 12.8364 14.5131 13.3704 14.7426 13.6764L14.8841 13.8652H18.1838C20.5072 13.8652 21.5127 13.8457 21.6006 13.7936C21.8934 13.6113 21.9471 12.9992 21.6982 12.6867L21.5713 12.5304L18.2716 12.5174C15.2551 12.5044 14.9573 12.5109 14.8353 12.6085Z" fill="#008ECB"/>
<path d="M5.30393 13.9369C4.93296 14.0085 4.29841 14.4187 4.00066 14.7703C3.71267 15.1089 3.43933 15.6624 3.28313 16.2093C3.18063 16.5805 3.1611 16.7693 3.14158 17.746C3.12205 18.6966 3.13182 18.8855 3.20503 19.0678C3.31242 19.3543 3.57112 19.4975 3.79077 19.3999C4.10805 19.2631 4.12757 19.1785 4.15686 17.9739C4.18126 16.9842 4.19591 16.8604 4.31305 16.5284C4.46925 16.0791 4.74259 15.7014 5.06475 15.4865L5.30393 15.3303L7.74938 15.3107C10.1314 15.2977 10.2046 15.2977 10.4731 15.4279C10.8196 15.6038 11.1515 16.0335 11.3224 16.5218C11.4395 16.8604 11.4493 16.9907 11.4737 17.9739C11.5079 19.1785 11.5274 19.2631 11.8447 19.3999C12.0643 19.4975 12.323 19.3543 12.4304 19.0678C12.5573 18.7487 12.5134 16.7888 12.3669 16.2614C12.0741 15.1935 11.5079 14.4382 10.6878 14.0475C10.3852 13.9043 10.3413 13.8978 7.98855 13.8913C6.67553 13.8848 5.465 13.9043 5.30393 13.9369Z" fill="#008ECB"/>
<path d="M14.914 18.1236C14.7138 18.2408 14.6016 18.4622 14.6016 18.7487C14.6016 19.0417 14.7138 19.2566 14.9237 19.3738C15.1678 19.5105 21.3131 19.5105 21.5572 19.3738C21.728 19.2761 21.8745 18.9896 21.8745 18.7487C21.8745 18.5078 21.728 18.2213 21.5572 18.1236C21.3131 17.9934 15.1434 17.9934 14.914 18.1236Z" fill="#008ECB"/>
</svg>
