<svg width="25" height="25" viewBox="0 0 25 25" fill="none" xmlns="http://www.w3.org/2000/svg">
<path opacity="0.939" fill-rule="evenodd" clip-rule="evenodd" d="M25 19.1938C25 19.3685 25 19.5432 25 19.7179C24.9263 19.8054 24.8449 19.8818 24.7559 19.9472C24.3343 19.965 23.9274 20.0741 23.5352 20.2747C23.1277 20.5916 22.7371 20.9409 22.3633 21.3228C20.7952 22.3568 19.3547 22.1057 18.042 20.5695C18.0094 21.1809 18.0094 21.7923 18.042 22.4037C18.5751 22.8541 19.1041 23.3126 19.6289 23.7794C19.806 24.2428 19.7083 24.5267 19.3359 24.631C19.1595 24.6111 18.9967 24.5346 18.8477 24.4017C18.4412 23.9979 18.018 23.6267 17.5781 23.2881C16.7347 22.9126 15.9208 23 15.1367 23.5501C14.5578 24.2333 13.8905 24.6918 13.1348 24.9258C12.2654 25.1233 11.4516 24.9267 10.6934 24.3362C10.2799 23.9132 9.84048 23.542 9.375 23.2225C8.71831 22.9867 8.06724 23.0085 7.42188 23.2881C6.98203 23.6267 6.55884 23.9979 6.15234 24.4017C5.40034 24.9288 4.60281 25.1035 3.75977 24.9258C3.34396 24.8199 2.95334 24.6234 2.58789 24.3362C2.21406 23.9543 1.82344 23.6049 1.41602 23.2881C1.00239 23.1144 0.579219 23.0052 0.146484 22.9605C0.103836 22.8921 0.0550079 22.8375 0 22.7967C0 22.6002 0 22.4037 0 22.2072C0.160092 22.0406 0.347267 21.9751 0.561523 22.0107C1.2514 22.0207 1.86988 22.3046 2.41699 22.8623C2.45762 22.2715 2.44948 21.6819 2.39258 21.0935C2.03303 20.7097 1.64241 20.3931 1.2207 20.1437C0.900068 20.0356 0.574546 19.9701 0.244141 19.9472C0.155124 19.8818 0.0737436 19.8054 0 19.7179C0 19.5432 0 19.3685 0 19.1938C0.0556627 19.1086 0.120767 19.0321 0.195312 18.9645C1.00323 18.8806 1.73565 19.1536 2.39258 19.7834C2.45768 18.7134 2.45768 17.6434 2.39258 16.5735C1.57391 16.1425 0.776377 15.6621 0 15.1323C0 14.9358 0 14.7393 0 14.5428C0.167873 14.3532 0.363186 14.2986 0.585938 14.379C1.19712 14.7395 1.80748 15.0998 2.41699 15.4599C2.45755 15.0433 2.44941 14.6284 2.39258 14.2152C1.72526 13.8331 1.05794 13.4509 0.390625 13.0688C0.229805 12.9949 0.0995972 12.8748 0 12.7085C0 12.3592 0 12.0098 0 11.6604C0.0661174 11.5166 0.163773 11.4183 0.292969 11.3656C0.996807 10.9853 1.69667 10.5923 2.39258 10.1865C2.44025 9.78845 2.45653 9.38453 2.44141 8.97458C1.78635 9.31555 1.13531 9.67584 0.488281 10.0555C0.296112 10.0897 0.133352 10.0132 0 9.82618C0 9.65147 0 9.47683 0 9.30212C0.0995972 9.13586 0.229805 9.01579 0.390625 8.94183C1.06394 8.57885 1.73126 8.19674 2.39258 7.79544C2.44138 6.70454 2.45766 5.61272 2.44141 4.52005C1.7088 4.53098 0.976382 4.52005 0.244141 4.48729C0.155124 4.42198 0.0737436 4.34554 0 4.25801C0 4.08332 0 3.90864 0 3.73395C0.0556627 3.6487 0.120767 3.57227 0.195312 3.50467C2.45768 3.461 4.72005 3.461 6.98242 3.50467C7.26362 3.75962 7.29619 4.06533 7.08008 4.42178C6.67856 4.51598 6.27163 4.54874 5.85938 4.52005C5.84312 5.63453 5.85942 6.74816 5.9082 7.86095C7.39946 8.70619 8.88872 9.5578 10.376 10.4158C11.8008 9.63307 13.2168 8.82516 14.624 7.99196C14.6484 6.83483 14.6566 5.67757 14.6484 4.52005C12.4836 4.53098 10.3189 4.52005 8.1543 4.48729C7.90845 4.2899 7.85146 4.01695 7.9834 3.66844C8.02749 3.58974 8.08442 3.53515 8.1543 3.50467C12.0768 3.47192 15.9993 3.461 19.9219 3.47192C19.9219 2.66399 19.9219 1.85606 19.9219 1.04813C13.3626 1.05905 6.80337 1.04813 0.244141 1.01537C0.155124 0.950043 0.0737436 0.873621 0 0.786096C0 0.611406 0 0.436723 0 0.262033C0.039865 0.154364 0.104969 0.0779364 0.195312 0.0327556C6.94985 -0.0109185 13.7044 -0.0109185 20.459 0.0327556C20.5648 0.0873433 20.638 0.185605 20.6787 0.327541C20.7258 1.66377 20.7095 2.99576 20.6299 4.32352C20.5858 4.4022 20.5289 4.45683 20.459 4.48729C19.6454 4.52005 18.8315 4.53098 18.0176 4.52005C18.0013 9.47703 18.0176 14.4337 18.0664 19.3903C18.5791 19.8326 19.1 20.2584 19.6289 20.6677C20.3186 20.986 21.0022 20.9642 21.6797 20.6022C22.1161 20.2568 22.5392 19.8856 22.9492 19.4886C23.5287 19.065 24.1472 18.8902 24.8047 18.9645C24.8635 19.0547 24.9286 19.1311 25 19.1938ZM3.22266 4.52005C3.84115 4.52005 4.45963 4.52005 5.07812 4.52005C5.07812 10.9616 5.07812 17.4033 5.07812 23.8449C4.44727 24.0277 3.83692 23.9404 3.24707 23.5828C3.22266 17.2286 3.21452 10.8744 3.22266 4.52005ZM15.4297 4.52005C16.0319 4.52005 16.6341 4.52005 17.2363 4.52005C17.2445 10.3721 17.2363 16.2241 17.2119 22.0762C16.7844 22.0008 16.3531 21.9899 15.918 22.0434C15.757 22.0733 15.6024 22.128 15.4541 22.2072C15.4297 16.3115 15.4215 10.4158 15.4297 4.52005ZM5.81055 8.97458C8.74707 10.63 11.6768 12.3114 14.5996 14.0187C14.6482 14.4093 14.6645 14.8024 14.6484 15.1978C11.7025 13.5383 8.75649 11.8787 5.81055 10.2192C5.81055 9.80437 5.81055 9.38944 5.81055 8.97458ZM14.5508 9.17111C14.615 9.34057 14.6476 9.5371 14.6484 9.76068C14.6403 9.9572 14.6322 10.1537 14.624 10.3502C13.9087 10.7918 13.1844 11.2067 12.4512 11.5949C12.1096 11.4095 11.7678 11.2239 11.4258 11.0381C12.4646 10.3956 13.5063 9.77325 14.5508 9.17111ZM2.34375 11.3329C2.43993 11.8746 2.47248 12.4422 2.44141 13.0361C1.92736 12.8006 1.42281 12.5277 0.927734 12.2172C1.40097 11.9152 1.87297 11.6204 2.34375 11.3329ZM5.81055 11.3329C6.30522 11.6087 6.79351 11.9034 7.27539 12.2172C6.80137 12.4838 6.32939 12.7567 5.85938 13.0361C5.81064 12.47 5.79438 11.9023 5.81055 11.3329ZM14.5508 11.5294C14.6152 11.7212 14.6478 11.9395 14.6484 12.1845C14.6322 12.4028 14.6159 12.6212 14.5996 12.8395C14.2284 12.656 13.8704 12.4377 13.5254 12.1845C13.8771 11.9811 14.2189 11.7628 14.5508 11.5294ZM8.25195 12.774C8.627 12.9273 8.98506 13.1347 9.32617 13.3964C8.17056 14.0624 7.01499 14.7283 5.85938 15.3944C5.79546 14.9868 5.79546 14.5828 5.85938 14.1825C6.66792 13.7305 7.46543 13.261 8.25195 12.774ZM10.3516 13.9532C11.7722 14.7422 13.1882 15.5502 14.5996 16.377C14.6647 17.4906 14.6647 18.6042 14.5996 19.7179C14.2448 20.0733 13.8705 20.39 13.4766 20.6677C12.666 21.0365 11.8848 20.9492 11.1328 20.4057C10.7263 20.0019 10.3031 19.6307 9.86328 19.2921C8.35532 18.567 7.01255 18.9273 5.83496 20.373C5.80239 19.1065 5.80239 17.84 5.83496 16.5735C7.34697 15.7063 8.85249 14.8328 10.3516 13.9532ZM8.05664 19.9799C8.52407 19.9372 8.97978 20.0136 9.42383 20.2092C10.0133 20.7156 10.6155 21.1961 11.2305 21.6504C12.434 22.1979 13.5571 21.9905 14.5996 21.028C14.6565 21.5945 14.6646 22.1622 14.624 22.7312C14.0259 23.4762 13.3179 23.8911 12.5 23.9759C12.1473 23.9463 11.8055 23.8481 11.4746 23.6811C11.0023 23.3207 10.5466 22.9277 10.1074 22.502C9.38003 22.0365 8.61509 21.8837 7.8125 22.0434C7.39668 22.1493 7.00605 22.3458 6.64062 22.633C6.38486 22.9083 6.11631 23.1594 5.83496 23.3863C5.79434 22.7738 5.80249 22.1624 5.85938 21.5521C6.28301 21.2244 6.68994 20.8641 7.08008 20.4712C7.3915 20.234 7.71704 20.0702 8.05664 19.9799Z" fill="#008ECB"/>
</svg>
