<svg width="30" height="30" viewBox="0 0 30 30" fill="none" xmlns="http://www.w3.org/2000/svg">
<g clip-path="url(#clip0_786_357)">
<path opacity="0.969" fill-rule="evenodd" clip-rule="evenodd" d="M14.209 -0.0292969C14.7558 -0.0292969 15.3027 -0.0292969 15.8496 -0.0292969C16.195 0.12409 16.527 0.309637 16.8457 0.527344C21.0351 4.7168 25.2246 8.90625 29.414 13.0957C29.6318 13.4143 29.8173 13.7464 29.9707 14.0918C29.9707 14.6387 29.9707 15.1856 29.9707 15.7324C29.4117 17.1166 28.3765 17.7806 26.8652 17.7246C26.875 20.752 26.8652 23.7793 26.8359 26.8066C26.6788 28.4675 25.7901 29.4929 24.1699 29.8828C22.2754 29.9219 20.3808 29.9219 18.4863 29.8828C18.2241 29.7769 18.0386 29.5914 17.9297 29.3262C17.9101 26.8262 17.8906 24.3262 17.8711 21.8262C17.7754 21.1447 17.3945 20.7248 16.7285 20.5664C15.5957 20.5273 14.4628 20.5273 13.33 20.5664C12.6891 20.7191 12.3082 21.1195 12.1875 21.7676C12.168 24.2871 12.1484 26.8066 12.1289 29.3262C12.0215 29.5898 11.8359 29.7754 11.5722 29.8828C9.65815 29.9219 7.74413 29.9219 5.83005 29.8828C4.29619 29.4818 3.42704 28.4954 3.22263 26.9238C3.19333 23.8575 3.18356 20.7911 3.19333 17.7246C1.26642 17.7502 0.211736 16.8127 0.0292665 14.9121C0.00345882 14.3354 0.149943 13.8081 0.46872 13.3301C4.69563 9.04459 8.94366 4.777 13.2129 0.527344C13.5315 0.309637 13.8635 0.12409 14.209 -0.0292969ZM14.7363 1.72852C15.0768 1.68599 15.3893 1.75435 15.6738 1.93359C19.7851 6.04494 23.8964 10.1562 28.0078 14.2676C28.2283 14.6166 28.2673 14.9877 28.125 15.3809C27.9466 15.6411 27.7024 15.8072 27.3925 15.8789C26.8066 15.8984 26.2207 15.918 25.6347 15.9375C25.3711 16.0449 25.1855 16.2305 25.0781 16.4941C25.0586 19.9317 25.039 23.3691 25.0195 26.8066C24.9376 27.4356 24.5958 27.8556 23.9941 28.0664C22.5703 28.1501 21.1446 28.1794 19.7168 28.1543C19.7266 26.0058 19.7168 23.8573 19.6875 21.709C19.4625 20.0583 18.5348 19.072 16.9043 18.75C15.6347 18.7109 14.3652 18.7109 13.0957 18.75C11.5501 19.0847 10.6419 20.0319 10.3711 21.5918C10.3418 23.7792 10.332 25.9667 10.3418 28.1543C8.91395 28.1794 7.48819 28.1501 6.06442 28.0664C5.46273 27.8556 5.12093 27.4356 5.03903 26.8066C5.0195 23.3691 4.99997 19.9317 4.98044 16.4941C4.87302 16.2305 4.68747 16.0449 4.4238 15.9375C3.83786 15.918 3.25192 15.8984 2.66599 15.8789C2.02233 15.703 1.75866 15.2831 1.87497 14.6191C1.90785 14.4888 1.96644 14.3716 2.05075 14.2676C6.1621 10.1562 10.2734 6.04494 14.3847 1.93359C14.4979 1.84813 14.6151 1.77977 14.7363 1.72852Z" fill="#008ECB"/>
</g>
<defs>
<clipPath id="clip0_786_357">
<rect width="30" height="30" fill="white"/>
</clipPath>
</defs>
</svg>
