<svg width="65" height="56" viewBox="0 0 65 56" fill="none" xmlns="http://www.w3.org/2000/svg">
<path d="M25.4451 0.293775C22.3234 0.839055 19.2827 2.78162 16.384 6.0533C15.3907 7.17794 14.5596 8.20034 14.5596 8.2685C14.5596 8.37074 15.1272 7.9277 15.8366 7.31426C17.3164 5.95106 20.6611 3.97442 22.972 3.08834C24.2491 2.61122 25.3843 2.4749 28.2425 2.50898C31.6885 2.50898 32.0129 2.57714 34.3035 3.63362C35.6211 4.21298 37.4252 5.33762 38.2969 6.08738C39.1685 6.80306 39.8983 7.34834 39.8983 7.28018C39.8983 7.00754 36.5738 3.8381 35.6414 3.22466C33.4318 1.72514 32.3575 1.17986 30.2898 0.566415C27.9384 -0.115186 27.8371 -0.149265 25.4451 0.293775Z" fill="white"/>
<path d="M49.7297 4.21256C46.7904 8.60888 41.9456 12.5622 37.6685 14.0958C34.567 15.2204 28.8709 14.8455 26.2154 13.3801C25.8505 13.1756 25.8505 13.2097 26.1546 13.5505C26.9654 14.4025 30.0263 15.7998 32.3169 16.311C38.2158 17.6401 44.2971 14.0617 48.5743 6.76856C50.7635 3.01976 51.2703 1.9292 49.7297 4.21256Z" fill="white"/>
<path d="M38.0943 25.4782C37.8308 26.9778 37.3037 27.7275 36.2902 28.0683C35.4996 28.341 35.4388 28.8181 36.2091 28.9544L36.7564 29.0567L36.8577 35.2933L36.9591 41.564L37.5267 42.3819C38.3578 43.5747 39.5538 43.5066 40.77 42.1434C41.8241 40.9847 42.0674 40.1667 41.1147 40.9847C40.3038 41.6663 39.3511 41.6322 39.1078 40.8824C39.0065 40.5757 38.9051 37.7811 38.8646 34.6799L38.7835 29.0567L40.0606 28.9544C41.1147 28.8863 41.3174 28.7499 41.3174 28.2387C41.3174 27.2504 41.0741 27.1141 40.5876 27.8979C40.2835 28.375 39.9389 28.5455 39.4727 28.4773L38.7835 28.375V26.3643C38.7835 23.9787 38.4389 23.5357 38.0943 25.4782Z" fill="white"/>
<path d="M0.0248844 25.649C0.0654263 25.8194 0.369491 26.0579 0.693826 26.1602L1.28168 26.3306V34.169V42.0074L0.633014 42.3482C-0.583245 42.9275 -0.0561996 43.2002 2.29523 43.1661C4.60612 43.132 5.29534 42.7912 3.91691 42.3823C3.53176 42.2459 3.20743 41.9733 3.20743 41.7347C3.20743 41.4962 3.18716 37.8837 3.16689 33.6919C3.14661 27.2167 3.18716 26.0239 3.45068 25.6831C3.67366 25.4104 3.30878 25.3082 1.84927 25.3082C0.633014 25.2741 -0.0156576 25.4104 0.0248844 25.649Z" fill="white"/>
<path d="M5.2143 25.6826C6.49137 26.8072 7.11977 29.7381 6.57245 32.0214C6.1873 33.521 5.35619 34.6797 4.64671 34.6797C4.24129 34.6797 4.18048 34.7478 4.42373 35.0205C5.25484 35.9406 7.30221 34.816 8.05223 33.0098C8.72118 31.408 8.78199 30.0107 8.23467 28.2386C7.70763 26.5005 6.75489 25.5122 5.39674 25.2395L4.52508 25.1032L5.2143 25.6826Z" fill="white"/>
<path d="M27.1877 27.7619C26.6606 29.1251 26.2957 29.5341 25.566 29.5682C25.0998 29.5682 24.897 29.7386 24.897 30.0794C24.897 30.352 25.0795 30.5906 25.3025 30.5906C25.566 30.5906 25.789 30.9314 25.9106 31.4767C26.1538 32.465 26.1741 41.1554 25.9511 41.7007C25.8701 41.9052 25.566 42.1778 25.2619 42.3141C24.9376 42.4164 24.6943 42.689 24.6943 42.8594C24.6943 43.0639 25.7079 43.2002 27.2282 43.2002C29.3364 43.2002 29.7621 43.132 29.7621 42.689C29.7621 42.3482 29.5594 42.1778 29.2148 42.1778C28.0593 42.1778 28.039 42.0415 27.9985 35.464C27.958 26.9781 27.958 26.8418 27.735 26.8418C27.6336 26.8418 27.3904 27.2507 27.1877 27.7619Z" fill="white"/>
<path d="M29.2557 28.0342C28.5868 28.7158 28.5259 28.8522 28.8908 28.8862C29.1341 28.8862 29.4381 29.193 29.5598 29.5678C29.6814 29.9427 29.9855 30.488 30.2693 30.7947C31.4247 32.0557 32.6815 29.0566 31.5463 27.7275C30.8977 26.9437 30.1882 27.0459 29.2557 28.0342Z" fill="white"/>
<path d="M14.7616 28.1025C13.4237 28.9204 12.2683 30.897 11.8629 33.0781C11.4372 35.3274 11.4372 35.6001 11.8426 37.6449C12.471 40.8484 14.5184 43.2681 16.4644 43.1658L17.0928 43.1317L16.4441 42.825C15.4914 42.3479 14.4778 40.4053 13.9305 37.9857C13.0183 33.9642 13.4845 29.0226 14.8224 28.4092C15.6941 28.0343 16.6265 28.2047 17.2144 28.9204C18.1671 30.0791 19.2212 34.1346 19.2212 36.7588C19.2212 38.7013 18.6536 41.3937 18.0658 42.1434C17.2955 43.1999 17.782 42.9954 18.8361 41.8708C20.5186 40.0986 21.2889 36.9292 20.8834 33.453C20.6807 31.7149 20.5186 31.2378 19.7077 30.0109C18.3698 27.898 16.3427 27.1482 14.7616 28.1025Z" fill="white"/>
<path d="M47.8643 28.0688C46.8507 28.6823 45.675 30.5908 45.148 32.4652C43.7695 37.4749 46.3845 43.3367 49.9116 43.1663L50.7427 43.1322L49.9927 42.8937C48.9589 42.5529 48.3102 41.7349 47.7224 40.065C46.3237 35.9413 46.2426 30.6248 47.5602 28.8527C48.1886 28.0348 49.6481 28.0007 50.3373 28.7504C51.513 30.0455 52.628 35.1575 52.3644 38.0543C52.2023 39.8946 51.7766 41.3941 51.1684 42.2461C50.4995 43.1663 51.0671 42.9618 51.959 41.9394C54.128 39.4516 54.8172 35.362 53.7023 31.6472C53.155 29.8751 52.1414 28.6141 50.8036 28.0007C49.4859 27.4213 48.9589 27.4213 47.8643 28.0688Z" fill="white"/>
<path d="M60.1892 28.2391C59.1554 28.9207 58.4257 31.0677 58.6486 32.8058C58.8108 34.1008 59.5203 35.021 61.1825 36.2138C62.5609 37.168 63.3312 38.1223 63.5137 39.1447C63.7164 40.1671 63.1083 42.0074 62.3785 42.6208C61.9528 42.9616 61.8312 43.2002 62.0542 43.2002C63.0272 43.2002 64.507 41.2917 64.8516 39.5536C65.3786 36.8272 64.507 34.7143 62.1758 33.1466C61.3852 32.6013 60.5947 31.9538 60.4528 31.6811C60.0068 30.9314 60.1284 29.6023 60.696 28.7162C61.2636 27.8301 61.0609 27.6597 60.1892 28.2391Z" fill="white"/>
<path d="M63.0468 28.5452C63.3306 28.886 63.6752 29.6699 63.8171 30.2493C64.182 31.7147 64.4252 31.5102 64.4252 29.7721C64.4252 28.2044 64.2023 27.8636 63.0265 27.8636H62.54L63.0468 28.5452Z" fill="white"/>
<path d="M58.5469 40.1327C58.5469 42.4161 58.5874 42.4843 60.4118 43.1659C61.2632 43.5067 61.2835 43.3363 60.5334 42.7228C60.2699 42.5183 59.8037 41.4278 59.4591 40.2009C59.1347 39.0422 58.7901 38.0879 58.709 38.0879C58.628 38.0879 58.5469 39.0081 58.5469 40.1327Z" fill="white"/>
<path d="M18.8156 48.2443C18.8156 48.4829 18.694 48.6533 18.5521 48.6533C18.3494 48.6533 18.3088 49.369 18.3697 51.7887C18.4102 53.5267 18.5521 55.0603 18.6535 55.1626C18.7751 55.2989 19.0386 55.2989 19.2616 55.1967C19.6265 55.0603 19.6467 54.9922 19.3224 54.7195C19.0386 54.4469 18.9981 53.9016 19.0386 51.3456C19.0791 49.7098 19.0386 48.2443 18.9575 48.108C18.8764 47.9717 18.8156 48.0398 18.8156 48.2443Z" fill="white"/>
<path d="M27.1679 48.8913C26.3976 49.5047 25.9111 50.8679 25.9111 52.3334C25.9111 53.5603 26.8841 55.4688 27.5328 55.4688C27.9382 55.4688 27.918 55.4347 27.3909 54.6508C26.9044 53.9351 26.8233 53.5603 26.8233 52.1289C26.8233 50.6975 26.9247 50.2204 27.4112 49.3684C28.1004 48.1756 28.0801 48.1075 27.1679 48.8913Z" fill="white"/>
<path d="M28.8913 49.1296C29.1953 49.6068 29.4994 49.8112 29.5197 49.6408C29.6413 49.1296 29.1345 48.3117 28.7088 48.3117C28.3845 48.3117 28.4048 48.414 28.8913 49.1296Z" fill="white"/>
<path d="M35.4378 48.755C35.1945 49.0617 35.154 49.7774 35.1945 52.0267C35.2553 54.1396 35.1945 54.9575 34.9918 55.162C34.8296 55.3665 35.0121 55.4688 35.5391 55.4688C36.0054 55.4688 36.2486 55.3324 36.1067 55.1961C35.9445 55.0257 35.8432 53.7647 35.8026 51.6518C35.7418 48.7891 35.7013 48.4142 35.4378 48.755Z" fill="white"/>
<path d="M37.8711 49.1646C37.8711 49.4372 38.013 49.6758 38.1752 49.6758C38.3373 49.6758 38.4792 49.4372 38.4792 49.1646C38.4792 48.8919 38.3373 48.6534 38.1752 48.6534C38.013 48.6534 37.8711 48.8919 37.8711 49.1646Z" fill="white"/>
<path d="M44.1553 49.1646C44.1553 49.4372 44.2972 49.6758 44.4593 49.6758C44.6215 49.6758 44.7634 49.4372 44.7634 49.1646C44.7634 48.8919 44.6215 48.6534 44.4593 48.6534C44.2972 48.6534 44.1553 48.8919 44.1553 49.1646Z" fill="white"/>
<path d="M16.6873 51.2087C15.7143 52.8446 16.3022 55.4688 17.6603 55.4688H18.309L17.6603 54.7871C17.0927 54.2078 16.9914 53.9351 16.9914 52.7764C16.9914 51.9926 17.1333 51.2087 17.3157 50.902C17.4982 50.5953 17.5387 50.3567 17.3968 50.3567C17.2752 50.3567 16.9508 50.7316 16.6873 51.2087Z" fill="white"/>
<path d="M20.8632 51.2425C19.7889 53.5259 21.1065 56.3204 22.7484 55.2639C23.2958 54.9231 23.1133 54.446 22.5052 54.6505C21.7957 54.8891 21.2484 54.1052 21.2484 52.8783C21.2484 52.1286 21.3295 52.0604 22.2619 52.0604C23.3566 52.0604 23.3768 52.0263 23.0728 51.0039C22.789 50.1179 22.2619 50.1519 22.4038 51.038C22.5052 51.6174 22.4038 51.7196 21.8768 51.7196C21.2889 51.7196 21.2484 51.6515 21.4511 51.038C21.7754 50.0497 21.3497 50.186 20.8632 51.2425Z" fill="white"/>
<path d="M31.4245 50.7655C31.1001 51.3108 31.1204 52.0605 31.465 52.0605C31.6069 52.0605 31.7893 51.6857 31.8299 51.2085C31.9515 50.2884 31.8096 50.118 31.4245 50.7655Z" fill="white"/>
<path d="M32.6004 52.8108C32.7017 55.2304 32.722 55.2986 33.2693 55.4008C33.5734 55.469 33.8166 55.3668 33.8166 55.1623C33.8166 54.9578 33.7355 54.7874 33.6139 54.7874C33.5126 54.7874 33.4112 54.0717 33.4112 53.2197C33.4112 51.5498 33.1274 50.357 32.7423 50.357C32.5598 50.357 32.5193 51.0386 32.6004 52.8108Z" fill="white"/>
<path d="M38.0938 50.9702C37.8911 51.311 37.81 52.0607 37.8505 53.1854C37.8911 54.31 37.81 54.9916 37.6275 55.162C37.4654 55.3665 37.6478 55.4688 38.1749 55.4688C38.6208 55.4688 38.8843 55.3324 38.7425 55.1961C38.6006 55.0598 38.4789 53.9692 38.4384 52.6742C38.3776 50.6975 38.337 50.4931 38.0938 50.9702Z" fill="white"/>
<path d="M40.4045 51.2085C39.7558 52.3331 39.7558 53.56 40.4045 54.6165C40.9721 55.6048 41.5599 55.8093 41.0531 54.855C40.5666 53.969 40.6072 51.8901 41.114 51.0381C41.418 50.5269 41.4383 50.3565 41.2153 50.3565C41.0531 50.3565 40.6883 50.7314 40.4045 51.2085Z" fill="white"/>
<path d="M42.006 50.9018C42.0668 51.2085 42.1276 51.5152 42.1276 51.5834C42.1276 51.6516 42.2695 51.7197 42.4519 51.7197C42.6749 51.7197 42.7357 51.5493 42.6546 51.1744C42.5938 50.8677 42.533 50.561 42.533 50.4928C42.533 50.4247 42.3911 50.3565 42.2087 50.3565C41.9857 50.3565 41.9249 50.5269 42.006 50.9018Z" fill="white"/>
<path d="M46.6283 50.7657C46.2634 51.3791 46.3242 52.1289 46.7499 51.9926C46.9323 51.9244 47.1148 51.5495 47.1553 51.1065C47.2364 50.2886 47.0134 50.1182 46.6283 50.7657Z" fill="white"/>
<path d="M47.9251 52.5044C47.9251 53.6972 48.0062 54.8218 48.0873 55.0604C48.2697 55.5375 49.0197 55.6056 49.0197 55.1285C49.0197 54.924 48.9386 54.7877 48.817 54.7877C48.7157 54.7877 48.6143 53.9698 48.6143 52.9815C48.6143 51.4138 48.371 50.3573 48.0264 50.3573C47.9454 50.3573 47.9048 51.3116 47.9251 52.5044Z" fill="white"/>
<path d="M44.378 51.0383C44.155 51.2428 44.0942 51.8563 44.1347 53.1172C44.1753 54.31 44.0942 54.9916 43.9117 55.162C43.7496 55.3665 43.932 55.4688 44.459 55.4688C44.905 55.4688 45.1685 55.3324 45.0266 55.1961C44.8847 55.0598 44.7631 54.0033 44.7226 52.8446C44.682 51.1065 44.6009 50.7657 44.378 51.0383Z" fill="white"/>
<path d="M28.6274 52.2992C28.9315 52.4356 28.9923 52.7082 28.8909 53.9692C28.7896 55.605 28.7896 55.6391 29.3774 55.1279C29.641 54.8893 29.7626 54.4122 29.7626 53.5943C29.7626 52.9808 29.8842 52.3674 30.0261 52.2992C30.1477 52.197 29.8234 52.1288 29.2558 52.1288C28.7085 52.1288 28.4044 52.197 28.6274 52.2992Z" fill="white"/>
<path d="M31.4251 53.2878C30.7561 54.0717 30.898 55.2645 31.6886 55.4008L32.2967 55.5371L31.8913 54.7873C31.567 54.208 31.5467 53.9694 31.7494 53.3901C32.0535 52.6062 32.0129 52.5721 31.4251 53.2878Z" fill="white"/>
<path d="M46.5267 53.3217C46.4456 53.4239 46.3848 53.9692 46.3848 54.5145C46.3848 55.2983 46.4658 55.4688 46.8915 55.4688C47.4794 55.4688 47.5199 55.2983 47.0942 54.5486C46.851 54.1396 46.8307 53.9351 47.0132 53.5603C47.1956 53.1854 47.1753 53.0831 46.9524 53.0831C46.7902 53.0831 46.5875 53.1854 46.5267 53.3217Z" fill="white"/>
<path d="M42.3301 54.8215C42.3301 54.9919 42.4314 55.0601 42.5328 54.9578C42.6544 54.8556 42.7355 54.6852 42.7355 54.5829C42.7355 54.5148 42.6544 54.4466 42.5328 54.4466C42.4314 54.4466 42.3301 54.617 42.3301 54.8215Z" fill="white"/>
</svg>
