<svg width="30" height="30" viewBox="0 0 30 30" fill="none" xmlns="http://www.w3.org/2000/svg">
<path d="M4.03978 0.0716953C2.45318 0.329681 1.22002 1.04501 0.505266 2.10627C-0.0445478 2.93299 -0.0131298 2.0535 0.0104336 15.1697L0.0339971 26.9843L0.206796 27.3654C0.733046 28.5147 1.95049 29.4293 3.48212 29.8163L4.11833 29.9746L16.0493 29.9922C29.2684 30.0098 28.4437 30.0333 29.1506 29.6228C29.3941 29.488 29.5904 29.3003 29.7554 29.0599L29.9989 28.6964V15.0525C29.9989 -0.239061 30.0538 1.11537 29.4019 0.575941C29.1977 0.405905 28.8914 0.235868 28.6479 0.153782L28.2316 0.0130615L16.3713 0.00133514C6.75744 -0.00452805 4.42465 0.00719833 4.03978 0.0716953ZM15.7194 5.24314C15.743 8.8784 15.7508 9.11293 15.8922 9.30642C16.3713 9.98657 17.3531 10.2152 18.1464 9.84585C18.5941 9.63477 18.8062 9.42955 19.7016 8.3507C20.1022 7.87577 20.4399 7.48879 20.4557 7.48879C20.4714 7.48879 20.8248 7.89336 21.2332 8.38588C22.1287 9.453 22.4271 9.72272 22.8748 9.88689C23.2833 10.0335 23.8645 10.0452 24.2337 9.91621C24.595 9.78721 25.0191 9.41782 25.1212 9.14811C25.1762 9.00153 25.2076 7.64124 25.2076 5.18451V1.44958H26.535C27.6425 1.44958 27.886 1.46716 27.9881 1.54339C28.0981 1.62547 28.1138 2.65742 28.1138 12.0387V22.4403H16.3713C6.13693 22.4403 4.55033 22.452 4.03978 22.5282C3.41143 22.6279 2.73594 22.8331 2.28823 23.0559C2.13114 23.138 1.97405 23.2025 1.94264 23.2025C1.85624 23.2025 1.86409 3.90044 1.95049 3.46069C2.15471 2.44048 3.25434 1.59616 4.58174 1.44958C4.80167 1.42612 7.39365 1.40267 10.3391 1.3968L15.6958 1.39094L15.7194 5.24314ZM23.244 4.70372C23.244 6.52721 23.2283 8.01649 23.2126 8.01649C23.1969 8.01649 22.7177 7.46534 22.1522 6.79106C21.2254 5.68875 21.0919 5.5539 20.817 5.47767C20.4478 5.36627 20.0315 5.43077 19.7802 5.63012C19.6938 5.70048 19.2068 6.24577 18.712 6.84383C18.2093 7.44188 17.7694 7.95199 17.7302 7.98717C17.6987 8.01649 17.6673 6.5448 17.6673 4.71544V1.39094H20.4557H23.244V4.70372ZM28.0352 24.0234C28.0824 24.0937 28.1059 24.4221 28.0981 24.8266L28.0745 25.5185L16.8819 25.5478C7.99059 25.5713 5.64995 25.5947 5.51643 25.6534C5.13156 25.8117 4.99018 26.2749 5.21796 26.6032C5.47715 26.9785 4.69956 26.955 16.9604 26.955H28.1138V27.6586C28.1138 28.286 28.0981 28.3739 27.9567 28.4795C27.7996 28.5967 27.6975 28.5967 16.4734 28.5967C10.1506 28.5967 4.91949 28.5733 4.65243 28.544C1.81696 28.2332 0.937263 25.5068 3.2779 24.3048C4.09477 23.8826 3.12081 23.9119 16.1907 23.9119C27.8624 23.9061 27.9488 23.9061 28.0352 24.0234Z" fill="black"/>
</svg>
